# xmcd CD database file
#
# Track frame offsets:
#	150
#	24757
#	59340
#	91705
#	124857
#	159662
#	167622
#	231007
#
# Disc length: 3289 seconds
#
# Revision: 0
# Processed by: cddbd v1.5PL3 Copyright (c) Steve Scherf et al.
# Submitted via: CDex 1.51
#
DISCID=540cd708
DTITLE=フォトン - フォトン「のドラマＣＤ」その２
DYEAR=1900
DGENRE=Anime
TTITLE0=アバン「バカが必死に喋ってた」
TTITLE1=第1話「腹が減ったら驚いた」
TTITLE2=第2話「行ったら誰もいなかった」
TTITLE3=第3話「校舎の裏で待っていた」
TTITLE4=第4話「棒で殴られ飛んでった」
TTITLE5=Pinch! Short ver
TTITLE6=スペシャルドラマ「いらないものを贈られた」
TTITLE7=こんな気持ちが大好き
EXTD=
EXTT0=
EXTT1=
EXTT2=
EXTT3=
EXTT4=
EXTT5=
EXTT6=
EXTT7=
PLAYORDER=
